<?xml version="1.0" encoding="utf-8" ?>
<svg xmlns="http://www.w3.org/2000/svg" xmlns:xlink="http://www.w3.org/1999/xlink" width="1024" height="1024">
	<path fill="#010101" d="M527.657 406.237C532.959 406.338 541.984 405.112 546.003 409.148C547.844 410.997 548.311 413.299 547.969 415.817C546.41 427.295 530.267 451.305 525.935 464.893C524.403 469.7 524.725 475.018 524.654 479.998C524.556 486.934 524.422 493.196 519.101 498.355C516.506 498.712 513.885 498.851 511.272 499.038L509.667 501.139C506.183 505.765 501.611 509.864 496.034 511.774C489.587 513.984 465.493 516.772 459.614 513.187C458.375 512.431 458.146 511.808 457.76 510.464C458.435 506.886 460.739 504.203 462.909 501.396C460.484 502.827 455.942 506.198 453.26 506.43C451.949 506.543 450.719 506.14 449.401 506.323L448.888 507.032C448.662 507.343 448.421 507.644 448.212 507.967C445.467 512.214 437.329 514.352 432.747 516.141C445.099 518.49 453.407 521.952 463.294 529.779C465.105 527.663 467.036 525.652 469.078 523.757C478.521 514.985 489.099 516.616 501.066 517.06C515.183 517.584 529.058 520.112 539.006 530.984C544.995 537.528 546.966 546.051 546.472 554.707C545.637 569.309 537.107 581.003 523.162 585.658C519.363 586.926 513.298 587.47 510.354 590.329C507.899 592.712 509.506 598.308 509.516 601.643C506.336 605.619 501.45 608.047 497.419 611.082C490.22 616.5 481.699 625.895 472.405 627.116C466.119 627.941 460.274 625.52 453.959 626.488L453.048 626.637C450.169 625.23 447.881 623.604 445.555 621.419C446.27 618.943 447.154 616.487 447.953 614.036C447.223 611.52 446.103 609.13 445.076 606.724C441.175 609.986 437.567 613.603 433.61 616.793C423.445 624.984 411.91 630.069 398.665 628.576C388.018 627.376 379.123 622.161 372.538 613.779C370.534 611.227 368.693 607.885 366.437 605.634C364.63 603.832 361.529 605.994 359.838 607.206C356.054 609.918 352.646 613.152 348.987 616.03C339.633 623.387 328.54 628.711 316.456 628.702C302.925 628.691 293.048 620.891 283.904 611.728C279.532 616.608 273.916 620.438 268.104 623.403C257.45 628.839 245.769 630.966 234.21 627.147C225.214 624.174 219.025 620.542 214.654 611.923C213.225 613.62 211.796 615.346 210.23 616.918C201.686 625.496 190.092 629.797 178.067 629.688C170.766 629.622 150.624 626.73 145.934 621.152C140.484 614.669 153.502 603.91 153.136 596.991C152.995 594.324 149.025 589.774 147.663 587.299C144.148 580.913 142.673 572.936 143.357 565.69C144.362 555.025 152.512 549.271 160.043 542.886C175.329 530.702 187.148 515.199 208.487 515.643C219.742 515.878 231.636 520.588 239.465 528.708L239.63 538.168C245.34 532.368 251.326 526.961 258.574 523.14C271.99 516.067 284.311 516.752 298.42 521.227C302.332 522.468 306.689 524.223 308.593 528.149C310.076 531.207 307.918 533.588 307.031 536.513C306.663 537.727 306.603 537.189 307.138 538.222C310.531 533.472 315.013 529.334 319.038 525.114C316.457 524.922 313.869 524.735 311.301 524.417C309.068 524.14 304.501 523.582 303.057 521.721C302.439 520.924 302.266 519.787 301.554 518.879C300.742 519.077 299.81 519.357 298.975 519.38C295.08 519.487 289.493 514.541 286.659 512.019C286.528 507.443 286.603 503.055 285.584 498.562C280.23 504.974 274.078 509.997 266.42 513.439C257.576 517.414 243.907 519.315 234.753 515.461C233.432 514.905 233.073 514.37 232.547 513.045C232.444 512.786 232.357 512.521 232.262 512.259C230.769 512.556 228.978 513.056 227.545 512.355C216.864 507.13 210.71 496.761 206.475 486.211C206.165 488.673 205.741 491.099 205.294 493.537C201.783 497.711 177.889 512.781 172.66 514.483C167.146 516.277 148.462 516.871 143.469 514.052C140.692 510.435 139.617 504.918 139.651 500.375C139.667 498.12 140.014 497.769 141.576 496.367C140.908 494.624 140.203 492.83 139.744 491.019C138.42 485.801 139.68 471.56 139.594 465.254C139.511 459.203 138.839 453.159 138.912 447.107C138.925 446.059 138.888 445.067 139.478 444.151C139.941 443.432 140.111 443.149 140.3 442.331L139.367 440.587C138.721 439.404 138.214 438.573 138.488 437.157C139.263 433.156 165.453 413.412 170.199 410.408C172.423 409.001 174.504 407.992 177.121 407.522C185.19 406.074 211.024 406.286 219.037 408.118C229.792 410.576 234.667 417.874 240.055 426.567C241.888 423.718 244.229 421.145 246.62 418.758C255.265 410.13 265.408 406.225 277.667 406.364C289.726 406.502 300.879 411.53 309.292 420.061C314.354 414.8 318.133 408.713 325.936 407.758C331.769 407.044 350.925 405.761 355.059 409.875C358.228 413.027 356.558 421.631 357.053 425.937C357.078 426.151 357.107 426.364 357.134 426.578C365.822 420.117 369.11 409.221 380.928 407.396C386.574 406.524 406.981 405.622 411.09 409.405C414.204 412.271 413.002 420.233 413.04 424.253C416.572 421.621 419.678 418.411 423.206 415.753C431.79 409.286 442.316 405.846 453.088 406.728C457.139 407.059 461.156 408.064 465.193 408.603C466.225 407.972 467.352 407.366 468.541 407.09C474.199 405.776 492.491 405.661 498.101 407.061C502.684 408.204 504.152 410.036 506.506 413.847C506.582 413.693 506.656 413.538 506.735 413.385L507.134 412.625C507.653 411.626 508.148 410.569 508.93 409.743C513.141 405.297 521.957 406.328 527.657 406.237ZM370.426 514.135L366.191 511.508C362.055 513.236 358.087 514.99 354.654 517.931L354.463 518.705C356.363 520.153 358.87 520.585 361.132 521.285C366.697 523.01 371.503 525.749 375.56 529.963C377.841 532.332 379.708 534.974 381.314 537.837C381.903 538.886 383.582 543.112 384.271 543.631C384.451 543.767 384.717 543.693 384.94 543.723L385.177 543.316C391.446 531.55 399.833 523.818 412.712 519.857C417.355 518.429 422.158 517.573 426.932 516.709C420.366 515.807 412.631 516.239 406.622 513.163C402.5 511.053 393.419 500.824 390.789 500.879C384.239 505.626 377.83 510.779 370.426 514.135Z"/>
	<path fill="#98D2D8" d="M273.408 415.151C294.576 412.661 313.798 427.687 316.494 448.83C319.19 469.972 304.352 489.341 283.236 492.242C261.828 495.184 242.132 480.095 239.399 458.659C236.666 437.223 251.946 417.675 273.408 415.151Z"/>
	<path fill="#010101" d="M277.98 437.612C280.779 437.422 283.431 437.807 285.989 439.012C289.526 440.679 292.023 443.838 293.141 447.553C294.408 451.79 293.907 456.359 291.751 460.22C289.185 464.828 285.415 466.731 280.537 468.025C276.651 468.194 273.311 468.21 269.845 466.122C266.798 464.289 264.637 461.285 263.867 457.813C262.869 453.506 263.827 448.723 266.187 445.012C269.069 440.482 272.98 438.76 277.98 437.612Z"/>
	<path fill="#98D2D8" d="M425.329 524.471C446.666 521.95 465.972 537.293 468.334 558.648C470.696 580.003 455.21 599.195 433.837 601.397C412.689 603.576 393.744 588.288 391.406 567.157C389.069 546.025 404.216 526.966 425.329 524.471Z"/>
	<path fill="#010101" d="M428.934 547.805C437.418 547.545 444.498 554.231 444.724 562.716C444.95 571.201 438.236 578.254 429.75 578.446C421.312 578.636 414.308 571.969 414.084 563.532C413.859 555.095 420.498 548.064 428.934 547.805Z"/>
	<path fill="#98D2D8" d="M337.489 525.325C358.326 521.269 378.5 534.891 382.524 555.734C386.548 576.576 372.895 596.729 352.045 600.721C331.242 604.704 311.143 591.087 307.127 570.29C303.112 549.492 316.698 529.372 337.489 525.325Z"/>
	<path fill="#190908" d="M341.612 545.502C343.38 545.372 345.27 545.378 347.001 545.796C351.121 546.767 354.644 549.421 356.715 553.112C358.978 557.203 359.45 562.048 358.02 566.499C356.323 571.734 352.705 574.753 347.95 577.123C345.873 577.468 344.008 577.515 341.954 576.964C337.996 575.903 334.981 573.387 333.084 569.773C330.803 565.402 330.392 560.294 331.944 555.614C333.703 550.426 336.955 547.884 341.612 545.502Z"/>
	<path fill="#010101" d="M347.92 551.736C349.458 552.489 351.569 553.211 352.481 554.694C352.233 556.293 351.457 556.877 350.43 558.1C349.726 558.391 349.218 558.195 348.473 558.106C347.459 557.29 347.116 557.022 346.802 555.686C346.43 554.1 347.157 553.034 347.92 551.736Z"/>
	<path fill="#98D2D8" d="M477.348 525.209C494.16 524.228 517.798 521.935 531.29 534.337C535.942 538.613 538.356 544.458 538.451 550.746C538.489 553.311 537.789 565.408 536.37 566.82C536.278 566.912 535.534 567.349 535.46 567.395C532.952 568.968 531.278 571.842 528.855 573.693C521.422 579.37 509.541 580.315 500.501 580.599C500.518 587.386 500.469 594.179 500.559 600.965L478.02 602.075C477.636 593.377 476.987 584.485 477.773 575.794L477.868 573.173C477.793 557.184 477.62 541.196 477.348 525.209Z"/>
	<path fill="#190908" d="M500.606 544.471C504.162 544.454 507.644 544.788 510.712 546.771C512.389 547.855 513.608 549.391 514.016 551.369C514.668 554.527 512.935 557.079 511.268 559.583C509.348 560.956 506.759 562.639 504.303 562.507C503.016 562.439 502.151 561.791 501.389 560.796C498.639 557.205 500.148 548.68 500.606 544.471Z"/>
	<path fill="#98D2D8" d="M177.413 414.553C183.856 414.673 190.299 414.758 196.742 414.81C207.145 414.811 220.462 413.301 228.452 421.465C233.269 426.386 235.175 433.355 234.927 440.107C234.641 447.9 231.804 456.417 225.839 461.687C218.553 468.124 208.12 467.419 199.021 467.519C198.929 475.681 198.731 483.841 198.429 491.997L186.991 491.998L177.01 492.294C176.973 487.035 177.033 481.775 177.188 476.519C177.423 473.489 177.835 470.509 177.034 467.539C176.726 466.396 176.421 465.256 176.087 464.12C176.167 463.998 176.249 463.878 176.325 463.755C176.75 463.07 177.197 462.336 177.262 461.516C177.576 457.592 177.167 453.298 177.223 449.322C177.419 437.733 177.483 426.143 177.413 414.553Z"/>
	<path fill="#190908" d="M204.12 434.526C204.834 434.521 205.54 434.508 206.25 434.595C208.576 434.881 210.802 435.898 212.215 437.82C213.199 439.159 213.584 440.775 213.274 442.412C212.761 445.113 210.818 446.522 208.638 447.913C206.936 447.943 204.911 448.111 203.288 447.545C201.477 446.914 199.982 445.314 199.198 443.596C198.49 442.073 198.484 440.316 199.183 438.788C200.227 436.448 201.774 435.368 204.12 434.526Z"/>
	<path fill="#98D2D8" d="M204.341 523.19C214.217 521.686 224.43 526.124 232.477 531.389C230.776 537.859 227.761 543.791 224.418 549.549C221.234 547.141 217.594 544.498 213.897 542.96C211.58 541.997 207.207 541.217 204.906 542.619C203.656 543.381 203.598 543.702 203.219 545.029C204.819 552.524 220.63 554.875 226.991 559.514C231.608 562.881 235.024 568.56 235.729 574.233C236.529 580.681 234.572 586.439 230.587 591.468C224.347 599.343 216.56 602.369 206.792 603.51C195.816 603.76 186.153 599.023 176.544 594.311C180.115 587.976 182.997 581.337 186.828 575.131C191.443 577.744 196.019 581.138 201.232 582.411C203.865 583.054 206.579 583.046 208.923 581.533C210.384 580.59 210.801 579.688 211.2 578.042C209.552 573.139 193.742 570.925 187.491 566.528C183.019 563.382 179.991 559.149 179.165 553.694C178.097 546.639 180.541 538.194 184.977 532.621C189.916 526.415 196.742 524.029 204.341 523.19Z"/>
	<path fill="#98D2D8" d="M446.887 414.681C447.26 414.64 447.633 414.606 448.007 414.579C456.976 413.94 467.937 416.102 474.831 422.088C470.474 429.166 468.623 436.512 466.391 444.431C464.541 442.87 462.599 441.427 460.386 440.417C456.218 438.516 451.184 437.453 446.814 439.329C443.192 440.883 440.703 444.216 439.365 447.835C437.819 452.019 437.793 456.595 439.695 460.67C441.352 464.219 444.222 467.19 447.999 468.419C454.39 470.499 459.256 466.673 464.711 463.997C470.07 468.845 473.45 476.112 477.078 482.302L479.001 485.743C474.034 489.671 468.133 492.012 461.923 493.09C450.984 494.99 438.18 493.881 428.912 487.288C420.489 481.297 415.547 471.317 413.954 461.279C412.175 450.064 414.122 437.686 421.033 428.454C427.378 419.978 436.654 416.089 446.887 414.681Z"/>
	<path fill="#98D2D8" d="M256.519 595.699C247.656 587.944 243.323 579.442 242.483 567.658C241.684 556.445 244.456 545.413 251.972 536.844C258.3 529.63 267.596 524.444 277.257 523.815C286.269 523.228 294.82 526.414 302.304 531.216C300.494 537.763 298.579 544.102 295.744 550.298C289.492 547.462 282.587 544.937 275.734 547.366C271.628 548.825 268.329 551.949 266.649 555.969C264.831 560.337 265.046 565.568 266.979 569.86C268.786 573.874 272.054 576.754 276.23 578.115C285.586 581.165 290.814 570.733 296.396 581.086C298.563 585.105 300.48 589.263 302.555 593.331C294.823 600.278 286.578 603.364 276.117 602.747C270.755 602.48 265.522 601.012 260.804 598.45C259.347 597.585 257.939 596.626 256.519 595.699Z"/>
	<path fill="#98D2D8" d="M527.68 413.718C530.912 413.039 533.929 415.241 536.004 414.854C537.498 414.575 538.336 413.213 540.085 413.446C541.403 415.722 536.741 423.555 535.493 425.972C529.228 438.107 520.541 451.728 517.985 465.165C516.382 473.591 516.513 482.335 516.352 490.879C511.986 491.204 507.467 491.76 503.093 491.674C500.583 491.625 497.462 491.389 495.788 489.224C492.698 485.228 494.59 472.812 494.809 467.624C495.044 463.793 494.983 460.073 493.995 456.339C491.464 446.776 483.48 434.034 478.186 425.364C476.742 422.999 474.772 420.861 473.493 418.432C472.988 417.472 472.636 416.607 472.741 415.509C475.343 413.677 489.33 414.105 492.919 414.595C500.953 415.692 503.672 425.489 508.451 431.528C509.922 427.293 511.127 420.086 514.163 416.828C517.458 413.292 523.309 414.063 527.68 413.718Z"/>
	<path fill="#98D2D8" d="M327.004 415.251C334.723 415.009 342.356 414.589 350.011 415.859C348.601 433.775 350.004 451.926 349.115 469.893C356.455 471.007 364.094 470.963 371.506 471.009C371.512 478.28 371.721 485.642 371.2 492.894C356.13 492.84 341.06 492.919 325.991 493.131L325.923 442.918C325.848 435.593 324.886 422.603 325.983 415.802L327.004 415.251Z"/>
	<path fill="#98D2D8" d="M380.539 414.265C387.976 416.623 396.724 415.503 404.427 414.928L404.536 491.884C400.356 494.759 385.178 492.867 379.89 492.512C378.638 481.398 379.55 469.795 379.586 458.611C379.633 443.906 378.737 428.878 380.539 414.265Z"/>
	<path fill="#010101" d="M879.204 303.673C880.472 303.417 882.859 303.214 884.075 303.692C885.765 304.357 887.142 305.304 888.039 306.902C888.008 308.202 887.959 308.529 887.03 309.558C883.553 313.406 873.1 313.425 868.17 314.613C864.259 315.584 860.387 316.71 856.565 317.989C843.461 322.368 819.256 333.53 809.905 344.273L810.536 344.691C811.965 345.618 813.171 346.488 814.3 347.788C823.547 358.433 827.35 372.508 826.49 386.39C825.694 399.219 820.087 411.473 810.438 420C811.709 425.634 813.55 431.121 814.488 436.837C818.59 461.806 806.011 501.862 791.223 522.168C782.406 534.275 778.72 534.942 764.637 537.104C757.827 544.862 753.833 554.882 745.759 561.592C732.324 572.757 713.732 568.676 697.808 567.263C681.048 589.431 663.137 610.686 646.138 632.657C639.586 641.126 632.798 649.485 626.424 658.082C612.867 676.366 599.48 696.971 581.463 711.206C575.455 715.953 566.584 718.483 558.981 717.428C551.082 716.331 544.056 711.496 539.389 705.138C533.276 696.81 530.931 685.738 532.423 675.608C535.194 664.906 539.13 654.555 542.819 644.147L556.15 605.835C565.932 577.3 574.452 548.388 583.666 519.678C581.273 517.696 578.758 515.659 577.546 512.711C577.021 511.433 576.694 509.934 575.897 508.787C574.975 507.462 573.523 506.433 572.393 505.287C569.794 502.651 568.822 499.416 567.535 496.046C561.41 480.009 560.706 463.273 567.77 447.483C567.725 447.361 567.679 447.24 567.635 447.117L567.423 446.502C566.403 443.623 566.156 441.05 566.298 438.012C567.226 418.106 579.661 389.453 594.475 376.249C605.038 366.835 617.333 362.548 631.418 363.37C631.625 362.257 631.846 361.145 632.08 360.037C634.963 346.518 645.873 337.145 656.906 329.938C658.554 326.085 660.159 322.214 661.721 318.326C660.494 318.158 659.138 318.039 657.95 317.694C656.677 317.325 656.227 316.671 655.615 315.579C656.041 314.495 656.588 313.782 657.793 313.445C659.635 312.928 661.177 314.088 662.729 314.952C665.437 314.423 668.298 310.984 670.841 309.441C677.271 305.537 685.009 304.405 692.288 306.302C703.677 309.221 709.106 316.965 714.707 326.587C727.611 326.271 740.247 331.808 749.72 340.409C755.604 336.03 762.346 332.942 769.506 331.348C781.876 328.707 793.976 332.113 804.432 338.829C820.293 323.136 839.879 314.017 861.072 307.85C866.952 306.139 873.116 304.377 879.204 303.673Z"/>
	<path fill="#FEFEFD" d="M715.978 334.404C720.812 334.483 725.817 335.62 730.373 337.197C734.679 338.688 739.173 340.554 741.279 344.842C740.092 348.1 737.879 351.144 736.105 354.126C733.424 358.631 730.989 363.354 729.243 368.306C727.884 372.165 727.857 375.644 727.852 379.698C727.833 393.654 733.362 404.018 739.171 416.301C749.133 422.932 753.972 429.153 766.468 431.941C778.783 434.688 792.23 433.047 802.949 426.273C808.335 438.946 807.564 452.643 804.778 465.884C801.338 482.228 790.751 517.402 776.455 526.192C771.784 529.063 766.424 528.771 761.279 527.45C740.848 522.204 757.499 505.369 750.195 493.786C747.043 488.786 742.448 487.672 737.053 486.445C724.07 492.476 722.832 507.171 712.083 511.921C708.809 513.367 704.077 513.902 700.732 512.393C691.847 508.385 698.432 495.034 699.32 488.365C699.788 484.855 699.575 481.208 698.264 477.891C697.071 474.874 695.054 472.661 692.03 471.426C671.688 463.118 668.519 491.785 659.188 494.373C657.195 494.926 656.134 494.134 654.521 493.096C653.431 492.395 650.736 493.425 649.134 493.086C646.553 491.207 645.624 487.658 644.71 484.728C647.727 476.33 653.2 468.788 654.275 459.85C654.365 456.058 653.096 452.212 650.472 449.439C647.195 445.977 642.367 444.506 637.701 444.43C630.985 444.322 624.371 446.529 619.569 451.323C611.54 459.338 612.128 469.429 609.405 479.526C608.771 481.877 606.558 483.069 606.54 485.686C606.536 486.281 606.611 487.068 606.472 487.645C605.821 490.344 602.217 494.765 599.903 496.134C597.786 497.385 594.708 497.741 592.36 497.015C589.786 496.219 588.09 494.204 586.983 491.831C585.278 488.173 584.802 483.771 585.097 479.78C586.308 463.355 597.423 461.871 600.756 452.098C600.437 451.673 600.125 451.244 599.819 450.811C600.328 450.108 600.798 449.557 601.436 448.957C601.641 448.764 601.852 448.578 602.061 448.389C602.331 447.246 602.376 446.422 602.164 445.255C601.59 442.083 599.469 436.129 596.348 434.586C587.08 430.006 586.87 444.335 581.067 445.77C579.851 446.071 578.153 445.723 577.098 445.018C575.484 443.937 574.826 441.973 574.584 440.125C572.933 427.498 584.729 400.686 592.281 390.6C599.299 381.228 608.896 373.583 620.786 371.953C638.341 369.547 655.565 382.111 668.788 392.077C670.285 389.991 671.827 388.785 673.892 387.305C664.196 376.313 651.871 370.608 638.463 365.459C642.744 354.521 647.287 347.781 656.218 340.134C656.776 345.102 658.373 349.903 659.929 354.631C662.579 356.378 664.789 358.593 667.162 360.675C673.109 365.891 681.092 367.935 688.884 367.355C696.921 366.758 704.611 363.324 709.835 357.057C715.413 350.366 716.747 342.765 715.978 334.404Z"/>
	<path fill="#27A1BF" d="M591.476 447.406C591.94 447.866 592.329 447.983 592.291 448.701C592.176 450.912 581.871 462.273 579.558 468.448C578.47 471.351 578.359 476.619 576.306 478.683C576.196 478.794 576.078 478.898 575.963 479.005C576.887 480.289 577.149 480.952 577.265 482.52C577.716 488.598 578.698 494.559 582.201 499.727C586.097 505.476 591.442 505.528 597.691 506.593C626.115 491.052 611.692 468.937 625.837 456.341C628.606 453.877 631.721 452.865 635.42 453.04C638.949 455.9 641.895 452.057 645.702 455.006C646.502 455.626 647.218 456.263 647.375 457.281L645.17 458.235C645.831 464.34 642.72 466.879 640.06 472.008C637.64 476.676 635.182 484.165 637.055 489.244C639.035 494.615 643.081 499.56 648.405 501.832C669.859 510.982 672.149 483.617 685.875 478.107L686.5 477.862C687.956 479.172 689.455 480.616 690.283 482.421C692.426 487.095 690.319 490.945 688.604 495.374C686.793 500.049 689.231 504.596 688.146 509.058L686.713 509.727L686.507 510.381C689.648 512.402 691.499 515.651 694.575 517.87C699.116 521.145 705.289 523.116 710.891 522.092C718.711 520.662 724.337 513.928 728.689 507.807C729.955 505.413 731.177 502.909 732.989 500.872C734.696 498.953 737.741 496.099 740.563 496.297C741.384 496.355 742.076 496.669 742.592 497.295C746.247 501.732 740.817 509.044 740.67 513.777C743.231 516.331 742.969 521.485 744.888 524.814C746.739 528.024 750.345 530.933 752.862 533.717C752.977 534.702 752.961 535.188 753.527 536.026C754.463 535.444 754.545 535.174 755.686 535.259L755.844 536.145C755.041 538.721 753.084 539.576 751.907 541.708C751.392 542.64 751.664 543.16 751.887 544.131C750.565 544.721 748.471 543.844 746.954 543.659L746.579 544.253C747.607 544.615 748.543 544.987 749.503 545.503C749.491 545.723 749.547 545.958 749.466 546.163C748.941 547.493 745.261 550.41 744.141 551.667C742.75 553.228 741.799 555.138 740.365 556.653C732.718 564.731 709.045 560.713 699.05 559.301C695.718 558.83 692.345 558.665 689.053 557.931C681.645 556.281 673.761 552.424 666.139 552.806L665.429 552.848C652.53 545.06 636.792 543.742 625.341 533.168L625.836 533.116C624.504 533.161 623.102 533.26 621.804 532.906C620.155 532.456 618.193 530.659 616.693 529.737C611.986 526.846 592.422 514.109 588.519 513.317C587.166 513.042 584.749 513.625 583.35 513.811C583.971 512.711 585.687 512.178 586.815 511.592C583.282 506.043 579.233 501.007 576.274 495.076C569.292 481.079 568.718 467.771 573.689 453.102C581.568 453.873 585.11 451.765 591.476 447.406Z"/>
	<path fill="#EC4E4D" d="M777.356 338.618C785.247 337.803 791.336 340.536 798.37 343.541C794.082 347.368 790.141 351.566 786.592 356.087L779.288 350.069C776.32 349.954 773.334 350.063 770.364 350.102C773.179 352.7 776.542 354.626 779.4 357.212C792.427 368.993 790.975 369.297 808.244 375.064C807.192 371.546 805.983 368.344 804.166 365.143C800.576 363.874 797.011 362.535 793.473 361.126C797.221 357.192 800.948 353.237 804.655 349.263C806.995 351.361 809.187 353.694 810.994 356.272C818.082 366.384 820.153 380.272 818.058 392.264C816.676 396.927 814.975 401.252 812.381 405.383C806.611 414.572 797.652 421.292 787.02 423.668C776.477 426.024 765.396 424.621 756.248 418.716C747.202 412.878 740.09 403.37 737.82 392.786C735.279 380.933 737.162 367.382 743.952 357.204C752.23 344.795 763.478 341.331 777.356 338.618Z"/>
	<path fill="#EC4E4D" d="M683.549 317.482L682.499 317.764C681.76 319.247 681.406 321.204 679.992 322.006C677.874 321.776 676.298 320.535 674.544 319.415L673.888 318.275C674.863 316.239 676.709 315.455 678.796 314.724C683.052 313.231 689.154 312.885 693.27 315.017C699.232 318.106 704.771 320.901 706.796 327.777C708.081 332.14 708.26 337.206 707.6 341.698C707.319 346.617 704.829 349.855 701.647 353.377C701.498 353.527 701.358 353.686 701.201 353.827C696.839 357.72 691.237 359.995 685.355 359.585C679.15 359.152 673.004 356.28 669.047 351.419C664.596 345.953 663.547 339.263 664.306 332.455C664.337 332.282 664.361 332.109 664.399 331.938C665.008 329.156 665.365 326.508 667.868 324.812C669.566 324.303 670.701 324.942 672.253 325.572L674.377 326.724C675.724 329.786 672.325 331.408 671.3 334.182C671.534 335.576 671.78 335.755 672.737 336.825C674.781 337.092 675.676 335.176 677.859 335.273C679.477 334.17 685.516 325.552 686.304 323.555C686.841 322.197 686.548 321.543 686.012 320.259L683.549 317.482Z"/>
	<path fill="#FA736C" d="M683.549 317.482L682.499 317.764C681.76 319.247 681.406 321.204 679.992 322.006C677.874 321.776 676.298 320.535 674.544 319.415L673.888 318.275C674.863 316.239 676.709 315.455 678.796 314.724C683.052 313.231 689.154 312.885 693.27 315.017C699.232 318.106 704.771 320.901 706.796 327.777C708.081 332.14 708.26 337.206 707.6 341.698C707.319 346.617 704.829 349.855 701.647 353.377C700.987 352.003 700.714 350.706 701.28 349.267C703.241 344.283 700.586 341.888 700.617 337.087C699.903 334.895 698.653 332.756 697.639 330.682C695.972 326.853 693.243 324.44 690.26 321.634L689.554 319.938C688.381 319.881 687.177 320.117 686.012 320.259L683.549 317.482Z"/>
	<path fill="#F0AB9D" d="M702.285 330.795C702.399 330.984 702.504 331.179 702.628 331.362C703.466 332.599 704.504 333.367 705.767 334.122C706.587 334.612 707.132 335.02 707.379 336.018C707.805 337.742 707.598 339.929 707.6 341.698C707.319 346.617 704.829 349.855 701.647 353.377C700.987 352.003 700.714 350.706 701.28 349.267C703.241 344.283 700.586 341.888 700.617 337.087C701.886 335.14 702.004 333.036 702.285 330.795Z"/>
	<path fill="#FEFEFD" d="M690.405 317.158C696.856 320.369 699.589 324.354 702.285 330.795C702.004 333.036 701.886 335.14 700.617 337.087C699.903 334.895 698.653 332.756 697.639 330.682C695.972 326.853 693.243 324.44 690.26 321.634L689.554 319.938C689.584 318.479 689.554 318.326 690.405 317.158Z"/>
	<path fill="#ECDAD9" d="M683.549 317.482C684.071 316.908 683.996 316.877 684.717 316.544C686.649 315.652 688.54 316.519 690.405 317.158C689.554 318.326 689.584 318.479 689.554 319.938C688.381 319.881 687.177 320.117 686.012 320.259L683.549 317.482Z"/>
	<path fill="#FA736C" d="M664.306 332.455C664.337 332.282 664.361 332.109 664.399 331.938C665.008 329.156 665.365 326.508 667.868 324.812C669.566 324.303 670.701 324.942 672.253 325.572C672.075 326.434 672.124 327.164 671.5 327.8C669.238 330.103 667.893 333.142 666.419 335.977L665.11 335.966C664.304 334.757 664.414 333.886 664.306 332.455Z"/>
	<path fill="#FA736C" d="M690.26 321.634C693.243 324.44 695.972 326.853 697.639 330.682C696.358 330.416 694.912 330.437 693.677 330.054C692.548 329.704 691.21 328.604 690.651 327.53C689.393 325.113 689.656 324.139 690.26 321.634Z"/>
	<path fill="#EED0CA" d="M575.14 626.797C577.491 626.512 580.459 625.996 582.731 626.87C585.181 627.814 593.796 649.813 595.468 653.747C588.553 654.705 581.609 655.559 574.761 656.931C572.576 657.523 570.406 658.183 568.231 658.811C562.64 650.647 558.033 639.206 555.492 629.586C561.929 627.512 568.444 627.281 575.14 626.797Z"/>
	<path fill="#EED0CA" d="M611.258 546.171C612.357 546.057 613.503 545.88 614.516 546.453C618.571 548.747 628.039 568.743 629.035 573.75C628.253 574.912 626.526 575.139 625.219 575.701C625.336 576.822 625.374 577.044 624.911 578.124L623.64 578.377C623.536 577.416 623.45 577.084 622.997 576.181C619.089 575.77 614.586 576.943 610.696 577.542L603.881 577.702C599.496 573.126 598.267 566.423 595.778 560.774L594.465 560.756C594.256 560.609 593.982 560.526 593.839 560.315C593.365 559.611 593.026 556.694 592.826 555.693C592.383 553.484 591.532 551.708 590.527 549.719C591.524 549.062 592.69 548.142 593.787 547.695C593.985 547.615 608.809 546.532 611.258 546.171Z"/>
	<path fill="#EED0CA" d="M591.079 624.691C600.026 623.661 608.971 622.118 617.887 620.819L621.373 627.625C622.691 629.752 624.289 631.871 624.702 634.385C625.713 634.7 625.223 634.501 626.17 634.984C626.255 635.22 626.337 635.458 626.425 635.692C626.742 636.53 627.18 637.17 627.671 637.912C628.561 639.255 629.432 640.954 629.095 642.616C628.925 643.453 627.851 644.266 627.269 644.876C626.408 645.584 625.41 646.554 624.423 647.054C623.18 647.684 621.538 647.413 620.193 647.798C617.561 648.552 616.944 650.272 613.61 650.776C613.389 650.809 613.17 650.851 612.95 650.888C610.494 651.224 607.957 651.444 605.548 652.018C604.502 652.332 603.975 652.522 602.921 652.163C598.389 647.656 593.053 631.32 591.079 624.691Z"/>
	<path fill="#EFB5A5" d="M621.373 627.625C622.691 629.752 624.289 631.871 624.702 634.385C625.713 634.7 625.223 634.501 626.17 634.984C626.255 635.22 626.337 635.458 626.425 635.692C626.742 636.53 627.18 637.17 627.671 637.912C628.561 639.255 629.432 640.954 629.095 642.616C628.925 643.453 627.851 644.266 627.269 644.876C626.408 645.584 625.41 646.554 624.423 647.054C623.18 647.684 621.538 647.413 620.193 647.798C617.561 648.552 616.944 650.272 613.61 650.776C613.389 650.809 613.17 650.851 612.95 650.888C611.431 647.622 613.348 643.455 611.764 639.879C614.976 635.734 618.398 631.986 621.373 627.625Z"/>
	<path fill="#F0AB9D" d="M627.269 644.876C625.73 642.681 623.236 641.338 622.643 638.574C622.844 636.753 623.612 635.819 624.702 634.385C625.713 634.7 625.223 634.501 626.17 634.984C626.255 635.22 626.337 635.458 626.425 635.692C626.742 636.53 627.18 637.17 627.671 637.912C628.561 639.255 629.432 640.954 629.095 642.616C628.925 643.453 627.851 644.266 627.269 644.876Z"/>
	<path fill="#F0AB9D" d="M611.764 639.879C613.348 643.455 611.431 647.622 612.95 650.888C610.494 651.224 607.957 651.444 605.548 652.018C607.209 647.496 608.547 643.57 611.764 639.879Z"/>
	<path fill="#EED0CA" d="M631.448 581.708C632.411 581.585 632.136 581.504 632.916 581.75C634.843 582.357 643.523 596.485 644.779 599.088C644.464 601.479 644.395 604.652 642.835 606.605C638.505 612.024 626.711 611.932 620.336 612.769C617.655 609.049 615.997 603.97 614 599.784C611.676 594.914 609.068 590.166 606.527 585.407C614.855 584.29 623.085 582.61 631.448 581.708Z"/>
	<path fill="#EED0CA" d="M594.324 586.673C595.757 586.326 597.579 586.361 599.062 586.226C605.14 594.431 609.103 605.362 613.358 614.671L592.596 617.167L586.874 618.071C584.182 608.095 580.021 597.207 573.917 588.863C580.581 587.024 587.546 587.956 594.324 586.673Z"/>
	<path fill="#EED0CA" d="M558.223 666.691C559.913 666.469 561.346 666.356 563.042 666.56C566.374 669.024 572.241 683.77 573.554 688.015C567.852 688.238 561.058 687.915 555.556 689.344C551.11 689.653 546.623 690.535 542.213 691.196C538.969 682.839 540.097 677.14 543.549 669.215C548.307 667.776 553.302 667.246 558.223 666.691Z"/>
	<path fill="#F0AB9D" d="M591.038 661.188C593.619 660.654 595.787 659.835 598.222 661.285C599.621 662.118 602.319 664.822 602.554 666.427C602.591 666.681 602.597 666.939 602.627 667.194C602.65 667.387 602.685 667.579 602.714 667.772C604.234 669.305 605.304 670.301 605.882 672.44C605.457 673.62 605.146 674.235 604.001 674.862C603.354 675.217 602.581 675.439 601.881 675.672C601.837 676.005 601.725 676.337 601.749 676.673C601.768 676.93 602.182 677.875 602.291 678.137C600.982 680.076 599.386 680.281 597.197 680.759L597.588 681.086C598.003 681.44 598.392 681.825 598.778 682.211C597.817 683.839 596.07 684.264 594.309 684.727C590.171 685.814 585.717 686.405 581.445 686.625L578.846 681.76C575.83 676.354 573.464 670.321 570.869 664.685C577.641 663.816 584.339 662.495 591.038 661.188Z"/>
	<path fill="#EED0CA" d="M570.869 664.685C577.641 663.816 584.339 662.495 591.038 661.188C588.99 667.976 585.391 678.019 578.846 681.76C575.83 676.354 573.464 670.321 570.869 664.685Z"/>
	<path fill="#EFB5A5" d="M602.714 667.772C604.234 669.305 605.304 670.301 605.882 672.44C605.457 673.62 605.146 674.235 604.001 674.862C603.354 675.217 602.581 675.439 601.881 675.672C601.959 672.959 602.023 670.419 602.714 667.772Z"/>
	<path fill="#EED0CA" d="M622.284 543.425L628.684 546.756C634.228 548.159 661.612 557.864 664.438 561.007L664.575 562.56L664.198 563.079C663.442 564.025 663.009 564.47 662.798 565.696C662.642 566.604 662.486 567.203 662.132 568.054C656.175 571.417 644.069 572.007 637.085 572.812C634.373 568.05 629.421 560.092 629.374 554.63L628.284 554.443C625.211 551.651 623.831 547.169 622.284 543.425Z"/>
	<path fill="#ECDAD9" d="M622.284 543.425L628.684 546.756C629.412 549.423 629.391 551.898 629.374 554.63L628.284 554.443C625.211 551.651 623.831 547.169 622.284 543.425Z"/>
	<path fill="#EFB5A5" d="M648.89 579.253C653.853 578.059 659.541 576.079 664.607 577.409C665.203 577.972 665.641 578.09 665.685 578.957C665.776 580.723 664.88 581.726 665.894 583.251C666.677 583.414 667.257 583.519 668.065 583.498L669.161 583.823L670.804 590.029L670.129 590.616C667.69 592.76 663.307 599.846 660.479 599.841C659.348 599.004 659.001 598.351 657.541 598.509L656.626 599.581C657.231 600.62 656.816 600.233 657.762 600.745C658.996 601.412 660.288 601.875 660.952 603.177L660.759 604.404L659.863 604.163C658.776 603.878 657.923 603.915 656.807 604.005C652.127 600.907 648.104 590.497 644.835 585.534C643.938 583.918 643.107 582.261 642.252 580.623L648.89 579.253Z"/>
	<path fill="#EED0CA" d="M642.252 580.623L648.89 579.253C648.97 581.064 649.141 581.823 647.723 583.206C646.851 584.057 645.803 584.794 644.835 585.534C643.938 583.918 643.107 582.261 642.252 580.623Z"/>
	<path fill="#EFB5A5" d="M556.526 696.561L557.543 696.473C564.481 695.81 570.525 694.135 577.634 695.078C578.931 696.861 580.259 698.612 581.363 700.524C580.455 701.814 579.363 703.726 578.154 704.724C576.855 705.796 573.913 705.948 572.937 706.907C571.057 708.755 573.159 709.141 568.663 709.907C563.424 710.8 557.962 710.038 553.29 707.474C548.666 704.888 546.079 702.226 543.357 697.772C547.808 696.872 551.976 696.359 556.526 696.561Z"/>
	<path fill="#EED0CA" d="M543.357 697.772C547.808 696.872 551.976 696.359 556.526 696.561L558.264 697.395C558.629 698.519 558.642 698.559 558.093 699.656C557.397 701.048 554.182 706.518 553.29 707.474C548.666 704.888 546.079 702.226 543.357 697.772Z"/>
	<path fill="#EED0CA" d="M573.093 582.184C576.01 571.132 578.798 559.892 582.826 549.182C585.927 556.381 589.119 563.539 592.401 570.656C593.681 573.079 595.333 575.359 594.544 578.197C593.387 579.52 592.172 579.955 590.448 580.106C587.733 580.344 585.029 580.537 582.314 580.828C579.198 581.143 576.169 581.594 573.093 582.184Z"/>
	<path fill="#EFB5A5" d="M592.401 570.656C593.681 573.079 595.333 575.359 594.544 578.197C593.387 579.52 592.172 579.955 590.448 580.106C587.733 580.344 585.029 580.537 582.314 580.828C584.354 576.273 588.377 573.349 592.401 570.656Z"/>
	<path fill="#EED0CA" d="M568.938 590.742C569.555 591.356 578.773 615.434 580.276 618.992L568.918 620.646C565.819 621.061 562.711 621.412 559.598 621.698C562.164 611.314 565.944 601.037 568.938 590.742Z"/>
	<path fill="#EED0CA" d="M590.874 523.709C595.657 526.098 600.618 528.779 605.077 531.72C607.364 533.229 609.84 534.927 610.429 537.756C610.167 538.392 610.115 538.939 609.49 539.31C607.942 540.231 606.181 539.746 604.57 539.32C602.136 538.966 596.929 540.71 594.244 541.064C591.571 541.417 588.927 541.515 586.235 541.546C587.305 535.683 587.999 528.992 590.874 523.709Z"/>
	<path fill="#EFB5A5" d="M634.586 629.31C633.787 630.273 633.713 630.528 632.523 630.84C630.352 629.788 628.95 627.113 627.938 625.019C627.353 623.808 626.043 621.177 626.474 619.976C627.998 619.467 628.106 620.146 629.473 620.4C631.029 620.688 631.498 615.939 633.482 614.959C634.06 615.378 634.609 615.805 635.158 616.264L635.745 616.761C639.786 616.843 644.903 615.995 648.504 614.099C650.243 613.183 652.02 612.577 653.872 611.937C651.081 614.245 647.631 616.69 645.832 619.883C645.091 621.198 644.597 622.771 643.274 623.519C642.625 623.008 641.968 622.541 641.279 622.086L639.914 622.418C639.961 622.624 639.991 622.834 640.053 623.035C640.388 624.113 641.037 624.814 641.75 625.654L641.603 626.863C640.739 627.38 640.036 627.469 639.048 627.599C639.012 628.594 639.175 629.052 639.494 629.976C638.471 631.671 636.323 633.276 634.746 634.478L633.429 633.818C633.229 632.013 634.511 631.275 635.193 629.653L634.586 629.31Z"/>
	<path fill="#F0AB9D" d="M634.586 629.31C634.499 627.958 634.433 626.35 635.241 625.164C636.336 623.556 638.144 622.968 639.914 622.418C639.961 622.624 639.991 622.834 640.053 623.035C640.388 624.113 641.037 624.814 641.75 625.654L641.603 626.863C640.739 627.38 640.036 627.469 639.048 627.599C639.012 628.594 639.175 629.052 639.494 629.976C638.471 631.671 636.323 633.276 634.746 634.478L633.429 633.818C633.229 632.013 634.511 631.275 635.193 629.653L634.586 629.31Z"/>
	<path fill="#EED0CA" d="M552.207 640.376C554.581 643.638 558.053 654.223 559.568 658.472C557.584 659.111 555.543 659.473 553.503 659.881C551.045 660.321 548.53 660.543 546.051 660.84C547.779 653.925 549.833 647.097 552.207 640.376Z"/>
	<path fill="#F0AB9D" d="M668.065 583.498C667.067 581.347 665.821 579.195 665.648 576.801C666.281 575.399 667.122 574.657 668.586 574.023C669.818 573.489 670.247 573.615 671.464 573.936C672.733 575.24 673.313 576.641 674.041 578.29C675.394 579.162 677.232 578.232 678.007 579.368C676.815 581.321 674.52 586.114 672.501 586.888C670.752 586.258 670.576 584.752 669.161 583.823L668.065 583.498Z"/>
	<path fill="#EFB5A5" d="M614.168 655.224C615.504 655.487 615.92 655.504 616.939 656.375C617.161 659.147 612.857 662.592 611.29 665.055L610.938 665.62C609.813 663.966 608.236 662.013 608.373 659.944C609.76 658.636 611.547 658.841 613.143 657.966C613.867 657.569 613.97 656.021 614.168 655.224Z"/>
	<path fill="#F0AB9D" d="M687.381 567.53C687.76 568.045 687.621 568.363 687.615 568.985C686.227 571.651 684.131 573.202 681.626 574.77C680.88 573.343 680.367 572.818 680.74 571.214C682.291 569.268 685.134 568.481 687.381 567.53Z"/>
	<path fill="#F0AB9D" d="M664.575 562.56C666.163 562.37 666.322 562.362 667.739 563.09C668.456 564.458 668.467 564.588 668.282 566.124C667.511 567.162 667.383 567.559 666.184 567.984C665.284 567.559 664.961 567.444 664.542 566.462C664.114 565.459 664.208 564.156 664.198 563.079L664.575 562.56Z"/>
</svg>
